<svg xmlns="http://www.w3.org/2000/svg" width="46.333" height="183.884" viewBox="0 0 46.333 183.884">
  <g id="logo_vertical" transform="translate(0 0)">
    <path id="Path_2" data-name="Path 2" d="M46.333,13.861S39.373-.261,23.015,0,0,11.408,0,11.408,11.639,9.22,16.745,18.7c0,0,3.931,6.612-2.389,13.658C9.119,38.193,1.081,36.182,1.081,36.182A6.293,6.293,0,0,1,4.7,39.144s5.84-1.216,9.526-4.929S19.077,27.055,20.11,25A23.038,23.038,0,0,1,46.333,13.861" transform="translate(0 -0.001)" fill="#2a6e2f"/>
    <path id="Path_3" data-name="Path 3" d="M31.152,150.172q.611,0,2.519,1.63,1.365,1.166,1.368,1.787,0,.465-.9.7a14.715,14.715,0,0,0-2.194.775q-1.727.7-3.668,1.436a.506.506,0,0,1,.108.078q1.437.465,1.438.854a3.6,3.6,0,0,1-.179,1.049,8.765,8.765,0,0,0-.072.971v5.825q3.453-.35,7.339-.777a15.079,15.079,0,0,0,2.05-.271,1.18,1.18,0,0,1,.507-.117,4.887,4.887,0,0,1,1.756.775q1.259,1.086,1.259,1.593,0,.777-.972.776A7.785,7.785,0,0,1,40,167.063q-1.331-.117-2.41-.115a79.225,79.225,0,0,0-8.021.507v14.716q0,2.484-1.043,2.485c-.29,0-.612-.312-.972-.931a3.885,3.885,0,0,1-.468-2.021,12.321,12.321,0,0,1,.109-1.281,13.786,13.786,0,0,0,.217-2.446V167.724l-4.748.66a30.805,30.805,0,0,0-4.173.893,7.511,7.511,0,0,1-1.043.117,5.289,5.289,0,0,1-1.979-1.009,14.212,14.212,0,0,1-1.547-1.2q-.181-.971-.18-1.049a16.635,16.635,0,0,0,3.705.507,9.789,9.789,0,0,0,1.906-.155q3.668-.507,8.058-.971v-6.371a3.019,3.019,0,0,0-.863-2.018q-2.015.7-4.281,1.436a22.515,22.515,0,0,1-4.819,1.049c-.169,0-.253-.1-.253-.311q0-.154.507-.271a55.188,55.188,0,0,0,11.547-5.4q1.905-1.241,1.906-1.9a1.756,1.756,0,0,0-.574-1.247q0-.31.576-.311" transform="translate(-5.739 -60.476)" fill="#1a1311"/>
    <path id="Path_4" data-name="Path 4" d="M43.547,248.41a35.155,35.155,0,0,1-4.423-2.37q-1.98-1.437-6.511-5.28-.862-.66-1.4-1.127c.1-.025.217-.051.362-.077q1.473-.544,2.878-1.2a37.274,37.274,0,0,0,3.489-2.176,5.649,5.649,0,0,1,.507-.309c.119-.025.18-.066.18-.117q0-.544-1.115-1.476c-.769-.8-1.319-1.2-1.655-1.2-.362,0-.539.17-.539.507a2.578,2.578,0,0,1,.434,1.048q0,.234-.683,1.014a22.142,22.142,0,0,1-2.446,2.172,23.286,23.286,0,0,1-2.015,1.4,13.5,13.5,0,0,0-1.8-2.679q-.434-.426-.757-.737a3.268,3.268,0,0,1,.362-.271,7.457,7.457,0,0,1,1.3-1.086c.167-.156.253-.285.253-.388q0-.387-1.08-1.32a37.523,37.523,0,0,1,5.683-.542q1.042,0,1.043-.817,0-.31-.791-.893a4.15,4.15,0,0,0-1.223-.507,1.327,1.327,0,0,0-.468.117,7.051,7.051,0,0,1-1.475.35q-3.849.579-6.834,1.126a4.324,4.324,0,0,1-1.042.156,8.059,8.059,0,0,1-2.7-.35,10.763,10.763,0,0,0,.323,1.048,2.76,2.76,0,0,0,1.3,1.05,2.371,2.371,0,0,0,1.223.427,1.341,1.341,0,0,0,.612-.195,17.054,17.054,0,0,1,2.841-.7.116.116,0,0,1,.037.072,1.6,1.6,0,0,1-.434.817,19.383,19.383,0,0,1-2.446,2.485,17.079,17.079,0,0,1-4.389,2.835,15.349,15.349,0,0,0-1.511.7c0,.131.083.2.252.2a9.526,9.526,0,0,0,1.583-.35,18.95,18.95,0,0,0,3.884-1.514,16.933,16.933,0,0,0,3.094-1.941c.264.4.519.835.77,1.289-.425.557-1.158,1.376-1.684,1.947a14.363,14.363,0,0,1-2.072,1.966,15.425,15.425,0,0,1-4,2.448l-1.439.62c0,.1.1.156.29.156a8.553,8.553,0,0,0,1.4-.271,16.442,16.442,0,0,0,3.525-1.321,16.815,16.815,0,0,0,3.633-2.408,8.9,8.9,0,0,1,1.151-.932l.072-.078c.137.486.264,1.037.384,1.627-.908,1.1-2.2,2.612-2.2,2.612l0,.021a29.09,29.09,0,0,1-2.389,2.228,19.315,19.315,0,0,1-5.5,3.416q-1.943.856-1.944.895c0,.1.1.154.29.154a9.848,9.848,0,0,0,1.835-.388,22.334,22.334,0,0,0,4.569-1.9,20.831,20.831,0,0,0,4.748-3.534q.574-.543,1.007-.893.072,1.086.072,2.329a8.876,8.876,0,0,1-.541,2.991,2.367,2.367,0,0,1-1.008,1.32,1.314,1.314,0,0,1-.719.234,4.629,4.629,0,0,1-2.158-.737.837.837,0,0,0-.468-.234c-.1,0-.145.117-.145.35,0,.1.132.271.4.507a10.267,10.267,0,0,1,2.77,3.263c.29.7.539,1.047.755,1.047q.575,0,1.366-1.086a8.153,8.153,0,0,0,1.368-2.95,16.225,16.225,0,0,0,.576-4.7,16.029,16.029,0,0,0-.755-5.047q.468.507.9,1.049a95.914,95.914,0,0,0,6.367,7.457.95.95,0,0,0,.652.311,12.031,12.031,0,0,0,4.028-.7c.383-.18.579-.413.579-.7,0-.027-.121-.106-.362-.233M18.581,232.373a8.644,8.644,0,0,0,.72-3.456v-.426a5.043,5.043,0,0,0,.827.426,3.831,3.831,0,0,0,1.366.429,12.059,12.059,0,0,0,1.8-.271,58.043,58.043,0,0,1,7.628-1.281,66.69,66.69,0,0,1,7.7-.427q.864,0,.864.739,0,.931-2.3,3.258c0,.233.048.35.145.35l2.878-1.32a13.08,13.08,0,0,1,2.554-.777q.756,0,.755-.542A5.508,5.508,0,0,0,42,226.626q-1.259-1.437-2.086-1.437a4.177,4.177,0,0,0-.9.155,11.557,11.557,0,0,1-2.231.234q-2.7.116-6.367.579v-1.631a12.627,12.627,0,0,1,.072-1.746,2.461,2.461,0,0,0,.072-.544c0-.233-.4-.507-1.187-.815a7.026,7.026,0,0,0-1.546-.466,3.345,3.345,0,0,0-1.043.815c0,.027.131.09.4.195a1.583,1.583,0,0,1,.9,1.513v2.953q-2.374.388-5.18.814-1.187.117-2.015.117a5.13,5.13,0,0,1-1.583-.233,1.137,1.137,0,0,1-.18-.156q-.072-.233-.145-.542-.181-.778-.362-.778-.072,0-.108.507a5.837,5.837,0,0,1-.468,1.747,14.459,14.459,0,0,1-1.331,2.485,3.076,3.076,0,0,0-.576,1.63,3.573,3.573,0,0,0,.324,1.437q.324.584.579.579.682,0,1.546-1.669" transform="translate(-6.737 -88.982)" fill="#1a1311"/>
    <path id="Path_5" data-name="Path 5" d="M16.85,85.265a2.16,2.16,0,0,0,1.258.466,3.919,3.919,0,0,0,1.116-.234q1.582-.35,7.805-.969,7.3-.7,12.05-.7c.695,0,1.043-.244,1.043-.736q0-.35-.828-.972a4,4,0,0,0-1.187-.466,5.527,5.527,0,0,0-.9.077,20.615,20.615,0,0,1-3.058.388q-2.734.271-5.252.466V81.81a5.493,5.493,0,0,1,.145-1.631,1.086,1.086,0,0,0,.145-.507q0-.311-1.187-.7a7.518,7.518,0,0,0-1.547-.427,2.383,2.383,0,0,0-.9.66c0,.026.131.09.4.194a1.584,1.584,0,0,1,.894,1.516V82.78q-3.6.311-6.762.622-1.262.116-2.159.116a10.2,10.2,0,0,1-2.7-.271q0,.039.29,1.014a2.723,2.723,0,0,0,1.331,1.008M43.5,110.656a46.5,46.5,0,0,1-5.864-2.292q-1.762-.89-5.036-2.912a1.645,1.645,0,0,0,.252-.117,25.172,25.172,0,0,0,2.77-1.786,5.781,5.781,0,0,1,.611-.388c.192-.077.29-.193.29-.349q0-.387-.972-1.2a4.905,4.905,0,0,0-.467-.388q2.122-.117,3.884-.117,1.007,0,1.008-.815,0-.31-.828-.893a3.684,3.684,0,0,0-1.223-.507,2.694,2.694,0,0,0-.755.117,19.9,19.9,0,0,1-2.805.427q-2.734.271-5.18.507V98.154q3.13-.312,5.289-.312c.6,0,.9-.271.9-.815q0-.271-.755-.814a4.4,4.4,0,0,0-1.115-.388,2.6,2.6,0,0,0-.468.039,11.222,11.222,0,0,1-1.619.271q-1.153.117-2.231.233V94.544q1.977-.195,3.958-.311c.072.1.167.232.29.389a1.282,1.282,0,0,0,.935.542,1.467,1.467,0,0,0,1.043-.62,18.1,18.1,0,0,0,1.366-4.5,4.659,4.659,0,0,1,.791-2.212.647.647,0,0,0,.217-.388q0-.35-1.008-1.049a4.706,4.706,0,0,0-2.158-1.014,1.631,1.631,0,0,0-.468.117A3.744,3.744,0,0,1,33,85.727q-6.619.622-11.366,1.243a.869.869,0,0,0-.684-.35,9.354,9.354,0,0,0-1.726-.272,2.214,2.214,0,0,0-.541.272c0,.1.109.217.324.35a2.842,2.842,0,0,1,.788,1.244,59.768,59.768,0,0,1,1.439,6.911q.25,1.32.865,1.32.681,0,.754-1.242,2.159-.271,4.281-.466V96.6q-1.619.193-3.058.35A9.136,9.136,0,0,1,23,97.027a7.652,7.652,0,0,1-2.481-.311,9.1,9.1,0,0,0,.29.971,2.432,2.432,0,0,0,1.187.932,1.932,1.932,0,0,0,1.152.467,1.529,1.529,0,0,0,.612-.2,31.49,31.49,0,0,1,3.381-.507v1.787q-3.023.31-5.647.659-1.15.117-1.979.117a8.977,8.977,0,0,1-2.7-.311,10.493,10.493,0,0,0,.29,1.014,2.456,2.456,0,0,0,1.331,1.008,2.162,2.162,0,0,0,1.259.466,3.547,3.547,0,0,0,1.043-.233q.754-.193,2.7-.466a24.677,24.677,0,0,1-3.417,3.068,30.177,30.177,0,0,1-6.69,3.534c0,.208.155.311.468.311a10.875,10.875,0,0,0,4.137-1.165,31.822,31.822,0,0,0,4.208-2.214,2.852,2.852,0,0,1,.579,1.98v.893a4.452,4.452,0,0,1-.72,2.641,1.605,1.605,0,0,0-.434.814q0,.273.719,1.049.684.815,1.152.815a.785.785,0,0,0,.576-.349,6.3,6.3,0,0,1,1.152-1.166l4.856-3.922q.757-.543.755-.777c0-.1-.049-.156-.145-.156q-5.755,2.952-5.9,2.952c-.1,0-.145-.038-.145-.117v-.967a14.812,14.812,0,0,1,.145-2.485,1.889,1.889,0,0,0,.145-.622q0-.579-1.043-1.242a3.807,3.807,0,0,0-.324-.232A32.563,32.563,0,0,0,26.6,102.7q1.15.816,2.734,2.172,5.792,5.01,9.388,7.571a1.62,1.62,0,0,0,.972.311,8.072,8.072,0,0,0,3.741-.971.978.978,0,0,0,.539-.893,1.539,1.539,0,0,0-.467-.233M29.187,87.536c1.815-.193,3.2-.29,4.137-.29q1.3,0,1.294.66a12.234,12.234,0,0,1-.18,1.475q-2.627.156-5.252.389Zm0,3.67q2.482-.271,4.964-.428c-.049.285-.1.57-.145.854a7.6,7.6,0,0,1-.324,1.165q-2.23.117-4.5.35Zm-7.264-2.874c1.654-.18,3.878-.466,5.2-.622l.02,2.253q-2.409.272-4.891.583-.145-.971-.324-2.214m.827,5.475q-.145-.7-.324-1.9,2.374-.271,4.712-.544V93.3q-2.194.232-4.389.507m6.259,9.475q-1.152-.7-1.87-1.086l.362-.311a1.906,1.906,0,0,1,.4-.038q3.2-.35,5.864-.544a.922.922,0,0,1,.037.271,2.836,2.836,0,0,1-.324,1.048,11.556,11.556,0,0,1-1.619,2.408q-1.3-.775-2.842-1.746" transform="translate(-5.565 -31.631)" fill="#1a1311"/>
    <path id="Path_6" data-name="Path 6" d="M7.363,299.365l.028-.025q.846.028.976.028t.979-.028l.028.025v.175l-.028.025q-.235.007-.362.021a.435.435,0,0,0-.186.053.253.253,0,0,0-.077.18,3.238,3.238,0,0,0-.019.394l-.007.805v1.113q0,.549.022.807a1.475,1.475,0,0,0,.1.434.8.8,0,0,0,.224.3,1.151,1.151,0,0,0,.43.208,2.3,2.3,0,0,0,.635.08,2.244,2.244,0,0,0,.7-.106,1.063,1.063,0,0,0,.5-.31,1.08,1.08,0,0,0,.224-.534,6.2,6.2,0,0,0,.052-.919v-1.077q0-.273-.008-.751a2.462,2.462,0,0,0-.041-.55.217.217,0,0,0-.12-.109,1.857,1.857,0,0,0-.483-.043l-.028-.028v-.164l.028-.032q.507.027.809.028.259,0,.806-.028l.031.028v.168l-.031.028a3.181,3.181,0,0,0-.418.026.269.269,0,0,0-.136.058.241.241,0,0,0-.058.119,3.419,3.419,0,0,0-.025.462l-.01.788v1.063a8.166,8.166,0,0,1-.049,1,1.327,1.327,0,0,1-.213.6,1.589,1.589,0,0,1-.392.4,1.706,1.706,0,0,1-.579.245,3.149,3.149,0,0,1-.737.085,2.963,2.963,0,0,1-.845-.109,1.593,1.593,0,0,1-.579-.29,1.116,1.116,0,0,1-.3-.376,1.434,1.434,0,0,1-.119-.466q-.027-.268-.028-.817v-1.344l-.007-.683a4.631,4.631,0,0,0-.019-.514.32.32,0,0,0-.048-.154.246.246,0,0,0-.125-.063,2.919,2.919,0,0,0-.454-.038l-.028-.025Z" transform="translate(-3.074 -120.547)" fill="#1a1311"/>
    <path id="Path_7" data-name="Path 7" d="M16.621,299.358l.028-.025q.625.027.973.028.385,0,1.041-.025.242-.007.351-.007a1.615,1.615,0,0,1,1.171.322,1.067,1.067,0,0,1,.307.763,1.217,1.217,0,0,1-.15.579,1.359,1.359,0,0,1-.444.485,2.182,2.182,0,0,1-.809.3q.1.136.345.473l.484.657q.236.326.507.688a2.186,2.186,0,0,0,.348.409.435.435,0,0,0,.135.058,1.068,1.068,0,0,0,.179.01l.028.028v.165l-.031.031a3.17,3.17,0,0,0-.389-.021q-.242,0-.528.021-.236-.294-.741-1.019-.586-.84-1.2-1.557l.034-.109q.177.011.276.011a1.364,1.364,0,0,0,.925-.29,1.013,1.013,0,0,0,.33-.808.835.835,0,0,0-.3-.7,1.279,1.279,0,0,0-.812-.237,2.21,2.21,0,0,0-.675.1,7.218,7.218,0,0,0-.051,1.313v2.3a5,5,0,0,0,.02.511.335.335,0,0,0,.05.154.249.249,0,0,0,.124.065,2.62,2.62,0,0,0,.454.04l.028.021v.175l-.028.028-.6-.021q-.242-.007-.379-.007-.106,0-.976.028l-.028-.028V304.1l.028-.021a3.446,3.446,0,0,0,.423-.035.321.321,0,0,0,.145-.054.275.275,0,0,0,.058-.145,3.279,3.279,0,0,0,.025-.483v-2.359l-.007-.683a4.7,4.7,0,0,0-.018-.514.326.326,0,0,0-.048-.154.249.249,0,0,0-.125-.063,2.911,2.911,0,0,0-.454-.038l-.028-.025Z" transform="translate(-6.939 -120.541)" fill="#1a1311"/>
    <path id="Path_8" data-name="Path 8" d="M24.488,304.281l-.031-.028v-.182l.031-.028a1.45,1.45,0,0,0,.321-.026.28.28,0,0,0,.128-.091,2.927,2.927,0,0,0,.227-.446l.362-.8.928-2.156q.263-.633.523-1.267H27.2l1.457,3.514.195.469c.056.133.122.278.2.434a1.337,1.337,0,0,0,.153.277.3.3,0,0,0,.106.065,1.12,1.12,0,0,0,.282.026l.028.028v.182l-.028.028q-.362-.031-.652-.032-.566.018-1.133.032l-.028-.028v-.182l.028-.028a2.7,2.7,0,0,0,.478-.033.116.116,0,0,0,.1-.121.605.605,0,0,0-.048-.2l-.42-1.067H25.926l-.372.9a1.08,1.08,0,0,0-.1.353.138.138,0,0,0,.092.13,1.55,1.55,0,0,0,.464.046l.031.028v.182l-.028.028q-.44-.028-.771-.028-.376,0-.758.028m1.557-1.963h1.727l-.856-2.11Z" transform="translate(-10.212 -120.515)" fill="#1a1311"/>
    <path id="Path_9" data-name="Path 9" d="M33.865,303.009l.028-.028h.167l.028.028a3.322,3.322,0,0,0,.045.547.445.445,0,0,0,.184.211,1.3,1.3,0,0,0,.413.18,1.988,1.988,0,0,0,.521.072,1.5,1.5,0,0,0,.652-.136,1.027,1.027,0,0,0,.45-.4,1.123,1.123,0,0,0,.16-.593.978.978,0,0,0-.077-.4.686.686,0,0,0-.217-.275.968.968,0,0,0-.315-.154,5.348,5.348,0,0,0-.528-.11c-.228-.038-.406-.072-.535-.1a1.771,1.771,0,0,1-.383-.14,1.018,1.018,0,0,1-.32-.24,1.093,1.093,0,0,1-.2-.357,1.316,1.316,0,0,1-.076-.452,1.408,1.408,0,0,1,.444-1.073,1.665,1.665,0,0,1,1.191-.418,3.083,3.083,0,0,1,.646.072,2.578,2.578,0,0,1,.637.222l.024.042a4.923,4.923,0,0,0-.092.917l-.031.028H36.5l-.028-.025q-.007-.42-.02-.529t-.311-.269a1.328,1.328,0,0,0-.645-.161,1.257,1.257,0,0,0-.543.119.8.8,0,0,0-.382.374,1.143,1.143,0,0,0-.13.521.817.817,0,0,0,.079.362.683.683,0,0,0,.2.252.853.853,0,0,0,.29.138,6.064,6.064,0,0,0,.606.112,3.532,3.532,0,0,1,.878.211.993.993,0,0,1,.44.394,1.225,1.225,0,0,1,.166.652,1.556,1.556,0,0,1-.593,1.242,2.156,2.156,0,0,1-1.435.5,2.8,2.8,0,0,1-1.239-.258l-.02-.046q.034-.217.051-1.029" transform="translate(-14.118 -120.475)" fill="#1a1311"/>
    <path id="Path_10" data-name="Path 10" d="M40.021,299.365l.028-.025q1.171.02,1.5.021,1.119,0,1.993-.021l.017.025a6.107,6.107,0,0,0-.126,1.053l-.021.028h-.167l-.03-.028v-.056a3.468,3.468,0,0,0-.044-.567,1.8,1.8,0,0,0-.6-.128q-.381-.03-.572-.03-.269,0-.689.038l-.014.56-.01.64-.01.711q.368.02.679.021c.21,0,.384-.007.526-.021a.888.888,0,0,0,.248-.043.149.149,0,0,0,.055-.088,1.328,1.328,0,0,0,.033-.229l.014-.217.028-.028h.157l.027.028q-.006.382-.017.766l.017.787-.027.028h-.157l-.028-.028-.024-.21a2.887,2.887,0,0,0-.044-.29.156.156,0,0,0-.063-.083.678.678,0,0,0-.255-.056c-.136-.014-.324-.021-.563-.021q-.2,0-.6.017-.017.294-.017.98,0,.735.017,1.082h.628q.829,0,1.037-.022a1.328,1.328,0,0,0,.4-.1q.03-.08.1-.373t.08-.362l.034-.025h.164l.027.025a4.961,4.961,0,0,0-.059.525q-.029.374-.029.64l-.024.028q-.652-.02-1.706-.021L41,304.288q-.324,0-.676.028l-.027-.028v-.115l.027-.035a1.832,1.832,0,0,0,.231-.131,2.791,2.791,0,0,0,.048-.613q.02-.586.019-.894v-2.081c0-.172,0-.313-.007-.421a1.385,1.385,0,0,0-.024-.233.265.265,0,0,0-.04-.1.162.162,0,0,0-.072-.047.748.748,0,0,0-.169-.033l-.259-.021-.028-.025Z" transform="translate(-16.712 -120.547)" fill="#1a1311"/>
    <path id="Path_11" data-name="Path 11" d="M47.124,304.316l-.031-.032v-.161l.031-.028a2.375,2.375,0,0,0,.333-.025.253.253,0,0,0,.161-.072.34.34,0,0,0,.048-.158c.007-.072.016-.236.024-.489s.011-.434.011-.546v-2.829a.449.449,0,0,0-.062-.264.278.278,0,0,0-.173-.109,2.257,2.257,0,0,0-.372-.026l-.028-.028v-.161l.028-.032q.471.018.618.018.344,0,.566-.018l1.086,1.448,1.6,2.057q.29.374.59.711v-2.709q0-.126-.011-.538a4.969,4.969,0,0,0-.03-.521.254.254,0,0,0-.059-.148.327.327,0,0,0-.16-.058,2.388,2.388,0,0,0-.32-.022l-.028-.027v-.16l.028-.032q.277.018.788.018.468,0,.679-.018l.031.032v.161l-.028.027a2.262,2.262,0,0,0-.348.026.217.217,0,0,0-.153.072.415.415,0,0,0-.042.154c-.008.067-.016.229-.024.483s-.012.434-.012.549v2.627q.007.473.014.948a5.478,5.478,0,0,0-.591-.145L51.045,304l-.724-.91L48,300.124v2.685c0,.107,0,.3.013.574a4.726,4.726,0,0,0,.028.5.289.289,0,0,0,.044.121.257.257,0,0,0,.118.061,1.628,1.628,0,0,0,.374.032l.028.028v.164l-.028.028a4.734,4.734,0,0,0-.573-.025q-.507,0-.89.025" transform="translate(-19.653 -120.554)" fill="#1a1311"/>
    <path id="Path_12" data-name="Path 12" d="M58.235,301.75q.856-.8,1.237-1.184l.628-.644a3.306,3.306,0,0,0,.3-.327v-.227l.034-.028c.172.009.362.014.566.014l.539-.01.034.031v.165l-.028.028a1.682,1.682,0,0,0-.434.036,1.19,1.19,0,0,0-.34.224q-.224.188-.513.46l-1.382,1.3,2.055,1.949q.494.473.554.515a.521.521,0,0,0,.248.049l.024.028v.145l-.024.028q-.2-.014-.41-.014-.127,0-.552.014-.311-.3-.545-.532t-1.987-1.876v1.428a4.807,4.807,0,0,0,.02.51.338.338,0,0,0,.049.154.259.259,0,0,0,.125.065,2.694,2.694,0,0,0,.454.04l.028.021v.175l-.028.028-.6-.021q-.242-.007-.379-.007-.106,0-.976.028l-.028-.028v-.175l.028-.021a3.417,3.417,0,0,0,.423-.035.3.3,0,0,0,.141-.054.278.278,0,0,0,.058-.145,3.3,3.3,0,0,0,.026-.483v-2.359l-.007-.683a4.036,4.036,0,0,0-.02-.514.326.326,0,0,0-.048-.154.247.247,0,0,0-.124-.063,2.919,2.919,0,0,0-.454-.038l-.028-.025v-.175l.028-.025.426.014q.42.014.549.014c.086,0,.4-.009.979-.028l.028.025v.175l-.028.025c-.156.005-.279.012-.362.021a.435.435,0,0,0-.185.053.248.248,0,0,0-.077.18,3.141,3.141,0,0,0-.018.394l-.007.805Z" transform="translate(-23.76 -120.545)" fill="#1a1311"/>
    <path id="Path_13" data-name="Path 13" d="M65.605,299.365l.028-.025q1.171.02,1.5.021,1.119,0,1.993-.021l.017.025a6.1,6.1,0,0,0-.126,1.053l-.021.028h-.167l-.03-.028v-.056a3.467,3.467,0,0,0-.044-.567,1.8,1.8,0,0,0-.6-.128q-.381-.03-.572-.03-.269,0-.689.038l-.014.56-.01.64-.01.711q.368.02.679.021c.21,0,.384-.007.526-.021a.889.889,0,0,0,.248-.043.149.149,0,0,0,.055-.088,1.328,1.328,0,0,0,.033-.229l.014-.217.028-.028H68.6l.027.028q-.006.382-.017.766l.017.787-.027.028h-.157l-.028-.028-.024-.21a2.884,2.884,0,0,0-.044-.29.156.156,0,0,0-.063-.082.678.678,0,0,0-.255-.056c-.136-.014-.324-.021-.563-.021q-.2,0-.6.017-.017.294-.017.98,0,.735.017,1.082h.628q.829,0,1.037-.022a1.328,1.328,0,0,0,.4-.1q.03-.08.1-.373t.08-.362l.034-.025H69.3l.027.025a4.965,4.965,0,0,0-.059.525q-.029.374-.029.64l-.024.028q-.652-.02-1.706-.021l-.928-.007q-.324,0-.676.028l-.027-.028v-.115l.027-.035a1.837,1.837,0,0,0,.231-.131,2.791,2.791,0,0,0,.048-.612q.02-.586.019-.894v-2.081c0-.172,0-.313-.007-.421a1.387,1.387,0,0,0-.024-.233.265.265,0,0,0-.04-.1.162.162,0,0,0-.072-.047.748.748,0,0,0-.169-.033l-.259-.021-.028-.025Z" transform="translate(-27.394 -120.547)" fill="#1a1311"/>
  </g>
</svg>
