<?xml version="1.0" encoding="utf-8"?>
<!-- Generator: Adobe Illustrator 26.0.2, SVG Export Plug-In . SVG Version: 6.00 Build 0)  -->
<svg version="1.1" id="圖層_1" xmlns="http://www.w3.org/2000/svg" xmlns:xlink="http://www.w3.org/1999/xlink" x="0px" y="0px"
	 viewBox="0 0 46.3 183.9" style="enable-background:new 0 0 46.3 183.9;" xml:space="preserve">
<style type="text/css">
	.st0{fill:#2A6E2F;}
	.st1{fill:#FFFFFF;}
</style>
<g id="logo_vertical" transform="translate(0 0)">
	<path id="Path_2" class="st0" d="M46.3,13.9c0,0-7-14.1-23.3-13.9S0,11.4,0,11.4s11.6-2.2,16.7,7.3c0,0,3.9,6.6-2.4,13.7
		c-5.2,5.8-13.3,3.8-13.3,3.8c1.5,0.5,2.8,1.5,3.6,3c0,0,5.8-1.2,9.5-4.9s4.9-7.2,5.9-9.2C25.2,15.7,36.1,11.1,46.3,13.9"/>
	<path id="Path_3" class="st1" d="M25.4,89.7c0.4,0,1.2,0.5,2.5,1.6c0.9,0.8,1.4,1.4,1.4,1.8c0,0.3-0.3,0.5-0.9,0.7
		c-0.8,0.2-1.5,0.5-2.2,0.8c-1.2,0.5-2.4,0.9-3.7,1.4c0,0,0.1,0,0.1,0.1c1,0.3,1.4,0.6,1.4,0.9c0,0.4-0.1,0.7-0.2,1
		c0,0.3-0.1,0.6-0.1,1v5.8c2.3-0.2,4.7-0.5,7.3-0.8c0.7,0,1.4-0.1,2.1-0.3c0.2-0.1,0.3-0.1,0.5-0.1c0.6,0.1,1.2,0.4,1.8,0.8
		c0.8,0.7,1.3,1.3,1.3,1.6c0,0.5-0.3,0.8-1,0.8c-0.5,0-1-0.1-1.5-0.2c-0.9-0.1-1.7-0.1-2.4-0.1c-2.7,0-5.4,0.2-8,0.5v14.7
		c0,1.7-0.3,2.5-1,2.5c-0.3,0-0.6-0.3-1-0.9c-0.3-0.6-0.5-1.3-0.5-2c0-0.4,0.1-0.9,0.1-1.3c0.1-0.8,0.2-1.6,0.2-2.4v-10.3l-4.7,0.7
		c-1.4,0.2-2.8,0.5-4.2,0.9c-0.3,0.1-0.7,0.1-1,0.1c-0.7-0.2-1.4-0.5-2-1c-0.5-0.4-1.1-0.8-1.5-1.2c-0.1-0.6-0.2-1-0.2-1
		c1.2,0.3,2.5,0.5,3.7,0.5c0.6,0,1.3,0,1.9-0.2c2.4-0.3,5.1-0.7,8.1-1v-6.4c0-0.8-0.3-1.5-0.9-2c-1.3,0.5-2.8,0.9-4.3,1.4
		c-1.6,0.5-3.2,0.9-4.8,1c-0.2,0-0.3-0.1-0.3-0.3c0-0.1,0.2-0.2,0.5-0.3c4-1.3,7.9-3.2,11.5-5.4c1.3-0.8,1.9-1.5,1.9-1.9
		c0-0.5-0.2-0.9-0.6-1.2C24.8,89.8,25,89.7,25.4,89.7"/>
	<path id="Path_4" class="st1" d="M36.8,159.4c-1.5-0.7-3-1.5-4.4-2.4c-1.3-1-3.5-2.7-6.5-5.3c-0.6-0.4-1-0.8-1.4-1.1
		c0.1,0,0.2-0.1,0.4-0.1c1-0.4,1.9-0.8,2.9-1.2c1.2-0.7,2.4-1.4,3.5-2.2c0.2-0.1,0.3-0.2,0.5-0.3c0.1,0,0.2-0.1,0.2-0.1
		c0-0.4-0.4-0.9-1.1-1.5c-0.8-0.8-1.3-1.2-1.7-1.2c-0.4,0-0.5,0.2-0.5,0.5c0.2,0.3,0.4,0.7,0.4,1c0,0.2-0.2,0.5-0.7,1
		c-0.8,0.8-1.6,1.5-2.4,2.2c-0.6,0.5-1.3,1-2,1.4c-0.5-1-1.1-1.9-1.8-2.7c-0.3-0.3-0.5-0.5-0.8-0.7c0.1-0.1,0.2-0.2,0.4-0.3
		c0.4-0.4,0.8-0.8,1.3-1.1c0.2-0.2,0.3-0.3,0.3-0.4c0-0.3-0.4-0.7-1.1-1.3c1.9-0.3,3.8-0.5,5.7-0.5c0.7,0,1-0.3,1-0.8
		c0-0.2-0.3-0.5-0.8-0.9c-0.4-0.2-0.8-0.4-1.2-0.5c-0.2,0-0.3,0-0.5,0.1c-0.5,0.2-1,0.3-1.5,0.4c-2.6,0.4-4.8,0.8-6.8,1.1
		c-0.3,0.1-0.7,0.1-1,0.2c-0.9,0-1.8-0.1-2.7-0.4c0.1,0.4,0.2,0.7,0.3,1c0.3,0.5,0.8,0.8,1.3,1c0.4,0.3,0.8,0.4,1.2,0.4
		c0.2,0,0.4-0.1,0.6-0.2c0.9-0.3,1.9-0.5,2.8-0.7c0,0,0,0,0,0.1c-0.1,0.3-0.2,0.6-0.4,0.8c-0.7,0.9-1.6,1.7-2.4,2.5
		c-1.3,1.2-2.8,2.1-4.4,2.8c-0.5,0.2-1,0.4-1.5,0.7c0,0.1,0.1,0.2,0.3,0.2c0.5-0.1,1.1-0.2,1.6-0.4c1.3-0.4,2.6-0.9,3.9-1.5
		c1.1-0.5,2.1-1.2,3.1-1.9c0.3,0.4,0.5,0.8,0.8,1.3c-0.4,0.6-1.2,1.4-1.7,1.9c-0.6,0.7-1.3,1.4-2.1,2c-1.2,1-2.5,1.8-4,2.4l-1.4,0.6
		c0,0.1,0.1,0.2,0.3,0.2c0.5-0.1,0.9-0.1,1.4-0.3c1.2-0.3,2.4-0.7,3.5-1.3c1.3-0.6,2.5-1.5,3.6-2.4c0.4-0.3,0.7-0.7,1.2-0.9l0.1-0.1
		c0.1,0.5,0.3,1,0.4,1.6c-0.9,1.1-2.2,2.6-2.2,2.6v0c-0.8,0.8-1.6,1.5-2.4,2.2c-1.6,1.4-3.5,2.6-5.5,3.4c-1.3,0.6-1.9,0.9-1.9,0.9
		c0,0.1,0.1,0.2,0.3,0.2c0.6-0.1,1.2-0.2,1.8-0.4c1.6-0.5,3.1-1.1,4.6-1.9c1.7-0.9,3.3-2.1,4.7-3.5c0.4-0.4,0.7-0.7,1-0.9
		c0,0.7,0.1,1.5,0.1,2.3c0,1-0.2,2-0.5,3c-0.2,0.5-0.5,1-1,1.3c-0.2,0.1-0.5,0.2-0.7,0.2c-0.8-0.1-1.5-0.3-2.2-0.7
		c-0.1-0.1-0.3-0.2-0.5-0.2c-0.1,0-0.1,0.1-0.1,0.4c0,0.1,0.1,0.3,0.4,0.5c1.1,0.9,2.1,2,2.8,3.3c0.3,0.7,0.5,1,0.8,1
		c0.4,0,0.8-0.4,1.4-1.1c0.6-0.9,1.1-1.9,1.4-3c0.4-1.5,0.6-3.1,0.6-4.7c0-1.7-0.2-3.4-0.8-5c0.3,0.3,0.6,0.7,0.9,1
		c2,2.6,4.1,5.1,6.4,7.5c0.2,0.2,0.4,0.3,0.7,0.3c1.4,0,2.7-0.2,4-0.7c0.4-0.2,0.6-0.4,0.6-0.7C37.2,159.7,37.1,159.6,36.8,159.4
		 M11.8,143.4c0.5-1.1,0.7-2.3,0.7-3.5v-0.4c0.3,0.2,0.5,0.3,0.8,0.4c0.4,0.2,0.9,0.4,1.4,0.4c0.6,0,1.2-0.1,1.8-0.3
		c2.5-0.6,5.1-1,7.6-1.3c2.6-0.3,5.1-0.4,7.7-0.4c0.6,0,0.9,0.2,0.9,0.7c0,0.6-0.8,1.7-2.3,3.3c0,0.2,0,0.4,0.1,0.4l2.9-1.3
		c0.8-0.3,1.7-0.6,2.6-0.8c0.5,0,0.8-0.2,0.8-0.5c-0.3-0.9-0.8-1.8-1.5-2.4c-0.8-1-1.5-1.4-2.1-1.4c-0.3,0-0.6,0.1-0.9,0.2
		c-0.7,0.2-1.5,0.2-2.2,0.2c-1.8,0.1-3.9,0.3-6.4,0.6v-1.6c0-0.6,0-1.2,0.1-1.7c0-0.2,0.1-0.4,0.1-0.5c0-0.2-0.4-0.5-1.2-0.8
		c-0.5-0.2-1-0.4-1.5-0.5c-0.4,0.2-0.8,0.5-1,0.8c0,0,0.1,0.1,0.4,0.2c0.6,0.3,0.9,0.9,0.9,1.5v3c-1.6,0.3-3.3,0.5-5.2,0.8
		c-0.8,0.1-1.5,0.1-2,0.1c-0.5,0-1.1-0.1-1.6-0.2c-0.1,0-0.1-0.1-0.2-0.2c0-0.2-0.1-0.3-0.1-0.5c-0.1-0.5-0.2-0.8-0.4-0.8
		c0,0-0.1,0.2-0.1,0.5c-0.1,0.6-0.2,1.2-0.5,1.7c-0.4,0.9-0.8,1.7-1.3,2.5c-0.3,0.5-0.5,1-0.6,1.6c0,0.5,0.1,1,0.3,1.4
		c0.2,0.4,0.4,0.6,0.6,0.6C10.8,145.1,11.3,144.5,11.8,143.4"/>
	<path id="Path_5" class="st1" d="M11.3,53.6c0.4,0.3,0.8,0.4,1.3,0.5c0.4,0,0.8-0.1,1.1-0.2c1.1-0.2,3.7-0.6,7.8-1
		c4.9-0.5,8.9-0.7,12.1-0.7c0.7,0,1-0.2,1-0.7c0-0.2-0.3-0.6-0.8-1c-0.4-0.2-0.8-0.4-1.2-0.5c-0.3,0-0.6,0-0.9,0.1
		c-1,0.2-2,0.3-3.1,0.4c-1.8,0.2-3.6,0.3-5.3,0.5v-0.8c0-0.5,0-1.1,0.1-1.6c0.1-0.2,0.1-0.3,0.1-0.5c0-0.2-0.4-0.4-1.2-0.7
		c-0.5-0.2-1-0.3-1.5-0.4c-0.3,0.1-0.7,0.4-0.9,0.7c0,0,0.1,0.1,0.4,0.2c0.6,0.3,0.9,0.9,0.9,1.5v1.9c-2.4,0.2-4.7,0.4-6.8,0.6
		c-0.8,0.1-1.6,0.1-2.2,0.1c-0.9,0-1.8-0.1-2.7-0.3c0,0,0.1,0.4,0.3,1C10.3,53.1,10.7,53.4,11.3,53.6 M37.9,79c-2-0.6-4-1.4-5.9-2.3
		c-1.2-0.6-2.9-1.6-5-2.9c0.1,0,0.2-0.1,0.3-0.1c1-0.5,1.9-1.1,2.8-1.8c0.2-0.1,0.4-0.3,0.6-0.4c0.2-0.1,0.3-0.2,0.3-0.3
		c0-0.3-0.3-0.7-1-1.2c-0.1-0.1-0.3-0.3-0.5-0.4c1.4-0.1,2.7-0.1,3.9-0.1c0.7,0,1-0.3,1-0.8c0-0.2-0.3-0.5-0.8-0.9
		c-0.4-0.2-0.8-0.4-1.2-0.5c-0.3,0-0.5,0-0.8,0.1c-0.9,0.2-1.9,0.4-2.8,0.4c-1.8,0.2-3.5,0.3-5.2,0.5v-1.8c2.1-0.2,3.8-0.3,5.3-0.3
		c0.6,0,0.9-0.3,0.9-0.8c0-0.2-0.3-0.5-0.8-0.8c-0.4-0.2-0.7-0.3-1.1-0.4c-0.2,0-0.3,0-0.5,0c-0.5,0.1-1.1,0.2-1.6,0.3
		c-0.8,0.1-1.5,0.2-2.2,0.2v-1.8c1.3-0.1,2.6-0.2,4-0.3c0.1,0.1,0.2,0.2,0.3,0.4c0.2,0.3,0.6,0.5,0.9,0.5c0.4,0,0.8-0.3,1-0.6
		c0.6-1.4,1.1-2.9,1.4-4.5c0.1-0.8,0.3-1.6,0.8-2.2c0.1-0.1,0.2-0.2,0.2-0.4c0-0.2-0.3-0.6-1-1c-0.6-0.5-1.4-0.9-2.2-1
		c-0.2,0-0.3,0.1-0.5,0.1c-0.4,0.1-0.8,0.2-1.2,0.2c-4.4,0.4-8.2,0.8-11.4,1.2c-0.2-0.2-0.4-0.3-0.7-0.3c-0.6-0.1-1.1-0.2-1.7-0.3
		c-0.2,0.1-0.4,0.2-0.5,0.3c0,0.1,0.1,0.2,0.3,0.3c0.4,0.3,0.6,0.8,0.8,1.2c0.6,2.3,1.1,4.6,1.4,6.9c0.2,0.9,0.5,1.3,0.9,1.3
		c0.5,0,0.7-0.4,0.8-1.2c1.4-0.2,2.9-0.3,4.3-0.5V65c-1.1,0.1-2.1,0.2-3.1,0.4c-0.4,0-0.7,0.1-1.1,0.1c-0.8,0-1.7-0.1-2.5-0.3
		c0.1,0.3,0.2,0.7,0.3,1c0.3,0.4,0.7,0.8,1.2,0.9c0.3,0.3,0.7,0.4,1.2,0.5c0.2,0,0.4-0.1,0.6-0.2c1.1-0.2,2.2-0.4,3.4-0.5v1.8
		c-2,0.2-3.9,0.4-5.6,0.7c-0.8,0.1-1.4,0.1-2,0.1c-0.9,0-1.8-0.1-2.7-0.3c0.1,0.3,0.2,0.7,0.3,1c0.3,0.5,0.8,0.8,1.3,1
		c0.4,0.3,0.8,0.4,1.3,0.5c0.4,0,0.7-0.1,1-0.2c0.5-0.1,1.4-0.3,2.7-0.5c-1,1.1-2.2,2.2-3.4,3.1c-2.1,1.5-4.3,2.6-6.7,3.5
		c0,0.2,0.2,0.3,0.5,0.3c1.4-0.1,2.8-0.5,4.1-1.2c1.5-0.6,2.9-1.4,4.2-2.2c0.4,0.6,0.6,1.3,0.6,2v0.9c0,0.9-0.2,1.9-0.7,2.6
		c-0.2,0.2-0.4,0.5-0.4,0.8c0,0.2,0.2,0.5,0.7,1c0.5,0.5,0.8,0.8,1.2,0.8c0.2,0,0.4-0.2,0.6-0.3c0.3-0.4,0.7-0.8,1.2-1.2l4.9-3.9
		c0.5-0.4,0.8-0.6,0.8-0.8c0-0.1,0-0.2-0.1-0.2c-3.8,2-5.8,3-5.9,3c-0.1,0-0.1,0-0.1-0.1v-1c0-0.8,0-1.7,0.1-2.5
		c0.1-0.2,0.1-0.4,0.1-0.6c0-0.4-0.3-0.8-1-1.2c-0.1-0.1-0.2-0.2-0.3-0.2c1.1-0.7,2.1-1.5,3.1-2.4c0.8,0.5,1.7,1.3,2.7,2.2
		c3.9,3.3,7,5.9,9.4,7.6c0.3,0.2,0.6,0.3,1,0.3c1.3,0,2.6-0.3,3.7-1c0.3-0.2,0.5-0.5,0.5-0.9C38.3,79.2,38.1,79.1,37.9,79
		 M23.6,55.9c1.8-0.2,3.2-0.3,4.1-0.3c0.9,0,1.3,0.2,1.3,0.7c0,0.5-0.1,1-0.2,1.5c-1.8,0.1-3.5,0.2-5.3,0.4L23.6,55.9z M23.6,59.6
		c1.7-0.2,3.3-0.3,5-0.4c0,0.3-0.1,0.6-0.1,0.9c-0.1,0.4-0.2,0.8-0.3,1.2c-1.5,0.1-3,0.2-4.5,0.3L23.6,59.6z M16.4,56.7
		c1.7-0.2,3.9-0.5,5.2-0.6l0,2.3c-1.6,0.2-3.2,0.4-4.9,0.6C16.6,58.3,16.5,57.5,16.4,56.7 M17.2,62.2c-0.1-0.5-0.2-1.1-0.3-1.9
		c1.6-0.2,3.2-0.4,4.7-0.5v1.9C20.1,61.8,18.7,62,17.2,62.2 M23.4,71.7c-0.8-0.5-1.4-0.8-1.9-1.1l0.4-0.3c0.1,0,0.3,0,0.4,0
		c2.1-0.2,4.1-0.4,5.9-0.5c0,0.1,0,0.2,0,0.3c0,0.4-0.1,0.7-0.3,1c-0.4,0.9-1,1.7-1.6,2.4C25.4,72.9,24.5,72.3,23.4,71.7"/>
	<path id="Path_6" class="st1" d="M4.3,178.8L4.3,178.8c0.6,0,0.9,0,1,0c0.1,0,0.4,0,1,0l0,0v0.2l0,0c-0.2,0-0.3,0-0.4,0
		c-0.1,0-0.1,0-0.2,0.1c0,0-0.1,0.1-0.1,0.2c0,0.1,0,0.3,0,0.4l0,0.8v1.1c0,0.4,0,0.6,0,0.8c0,0.1,0,0.3,0.1,0.4
		c0,0.1,0.1,0.2,0.2,0.3c0.1,0.1,0.3,0.2,0.4,0.2c0.2,0.1,0.4,0.1,0.6,0.1c0.2,0,0.5,0,0.7-0.1c0.2-0.1,0.4-0.2,0.5-0.3
		c0.1-0.2,0.2-0.3,0.2-0.5c0-0.3,0.1-0.6,0.1-0.9v-1.1c0-0.2,0-0.4,0-0.8c0-0.2,0-0.4,0-0.5c0-0.1-0.1-0.1-0.1-0.1
		c-0.2,0-0.3,0-0.5,0l0,0v-0.2l0,0c0.3,0,0.6,0,0.8,0c0.2,0,0.4,0,0.8,0l0,0v0.2l0,0c-0.1,0-0.3,0-0.4,0c0,0-0.1,0-0.1,0.1
		c0,0-0.1,0.1-0.1,0.1c0,0.2,0,0.3,0,0.5l0,0.8v1.1c0,0.3,0,0.7,0,1c0,0.2-0.1,0.4-0.2,0.6c-0.1,0.2-0.2,0.3-0.4,0.4
		c-0.2,0.1-0.4,0.2-0.6,0.2c-0.2,0.1-0.5,0.1-0.7,0.1c-0.3,0-0.6,0-0.8-0.1c-0.2-0.1-0.4-0.2-0.6-0.3c-0.1-0.1-0.2-0.2-0.3-0.4
		c-0.1-0.1-0.1-0.3-0.1-0.5c0-0.2,0-0.5,0-0.8v-1.3l0-0.7c0-0.2,0-0.3,0-0.5c0-0.1,0-0.1,0-0.2c0,0-0.1-0.1-0.1-0.1
		c-0.2,0-0.3,0-0.5,0l0,0L4.3,178.8z"/>
	<path id="Path_7" class="st1" d="M9.7,178.8L9.7,178.8c0.4,0,0.8,0,1,0c0.3,0,0.6,0,1,0c0.2,0,0.3,0,0.4,0c0.4,0,0.8,0.1,1.2,0.3
		c0.2,0.2,0.3,0.5,0.3,0.8c0,0.2-0.1,0.4-0.1,0.6c-0.1,0.2-0.3,0.4-0.4,0.5c-0.2,0.2-0.5,0.3-0.8,0.3c0.1,0.1,0.2,0.2,0.3,0.5
		l0.5,0.7c0.2,0.2,0.3,0.4,0.5,0.7c0.1,0.2,0.2,0.3,0.3,0.4c0,0,0.1,0,0.1,0.1c0.1,0,0.1,0,0.2,0l0,0v0.2l0,0c-0.1,0-0.3,0-0.4,0
		c-0.2,0-0.3,0-0.5,0c-0.2-0.2-0.4-0.5-0.7-1c-0.4-0.6-0.8-1.1-1.2-1.6l0-0.1c0.1,0,0.2,0,0.3,0c0.3,0,0.7-0.1,0.9-0.3
		c0.2-0.2,0.3-0.5,0.3-0.8c0-0.3-0.1-0.5-0.3-0.7c-0.2-0.2-0.5-0.3-0.8-0.2c-0.2,0-0.5,0-0.7,0.1c-0.1,0.4-0.1,0.9-0.1,1.3v2.3
		c0,0.2,0,0.3,0,0.5c0,0.1,0,0.1,0,0.2c0,0,0.1,0.1,0.1,0.1c0.1,0,0.3,0,0.5,0l0,0v0.2l0,0l-0.6,0c-0.2,0-0.3,0-0.4,0
		c-0.1,0-0.4,0-1,0l0,0v-0.2l0,0c0.1,0,0.3,0,0.4,0c0.1,0,0.1,0,0.1-0.1c0,0,0.1-0.1,0.1-0.1c0-0.2,0-0.3,0-0.5v-2.4l0-0.7
		c0-0.2,0-0.3,0-0.5c0-0.1,0-0.1,0-0.2c0,0-0.1-0.1-0.1-0.1c-0.2,0-0.3,0-0.5,0l0,0L9.7,178.8z"/>
	<path id="Path_8" class="st1" d="M14.3,183.8L14.3,183.8l0-0.2l0,0c0.1,0,0.2,0,0.3,0c0.1,0,0.1,0,0.1-0.1c0.1-0.1,0.2-0.3,0.2-0.4
		l0.4-0.8l0.9-2.2c0.2-0.4,0.3-0.8,0.5-1.3H17l1.5,3.5l0.2,0.5c0.1,0.1,0.1,0.3,0.2,0.4c0,0.1,0.1,0.2,0.2,0.3c0,0,0.1,0.1,0.1,0.1
		c0.1,0,0.2,0,0.3,0l0,0v0.2l0,0c-0.2,0-0.5,0-0.7,0c-0.4,0-0.8,0-1.1,0l0,0v-0.2l0,0c0.2,0,0.3,0,0.5,0c0.1,0,0.1-0.1,0.1-0.1
		c0-0.1,0-0.1,0-0.2l-0.4-1.1h-2l-0.4,0.9c-0.1,0.1-0.1,0.2-0.1,0.4c0,0.1,0,0.1,0.1,0.1c0.2,0,0.3,0.1,0.5,0l0,0v0.2l0,0
		c-0.3,0-0.6,0-0.8,0C14.8,183.7,14.5,183.8,14.3,183.8 M15.8,181.8h1.7l-0.9-2.1L15.8,181.8z"/>
	<path id="Path_9" class="st1" d="M19.7,182.5L19.7,182.5l0.2,0l0,0c0,0.2,0,0.4,0,0.5c0,0.1,0.1,0.2,0.2,0.2
		c0.1,0.1,0.3,0.1,0.4,0.2c0.2,0,0.3,0.1,0.5,0.1c0.2,0,0.4,0,0.7-0.1c0.2-0.1,0.3-0.2,0.5-0.4c0.1-0.2,0.2-0.4,0.2-0.6
		c0-0.1,0-0.3-0.1-0.4c0-0.1-0.1-0.2-0.2-0.3c-0.1-0.1-0.2-0.1-0.3-0.2c-0.2,0-0.4-0.1-0.5-0.1c-0.2,0-0.4-0.1-0.5-0.1
		c-0.1,0-0.3-0.1-0.4-0.1c-0.1-0.1-0.2-0.1-0.3-0.2c-0.1-0.1-0.2-0.2-0.2-0.4c-0.1-0.1-0.1-0.3-0.1-0.5c0-0.4,0.1-0.8,0.4-1.1
		c0.3-0.3,0.8-0.4,1.2-0.4c0.2,0,0.4,0,0.6,0.1c0.2,0,0.4,0.1,0.6,0.2l0,0c-0.1,0.3-0.1,0.6-0.1,0.9l0,0h-0.2l0,0c0-0.3,0-0.5,0-0.5
		c0-0.1-0.1-0.2-0.3-0.3c-0.2-0.1-0.4-0.2-0.6-0.2c-0.2,0-0.4,0-0.5,0.1c-0.2,0.1-0.3,0.2-0.4,0.4c-0.1,0.2-0.1,0.3-0.1,0.5
		c0,0.1,0,0.2,0.1,0.4c0,0.1,0.1,0.2,0.2,0.3c0.1,0.1,0.2,0.1,0.3,0.1c0.2,0,0.4,0.1,0.6,0.1c0.3,0,0.6,0.1,0.9,0.2
		c0.2,0.1,0.3,0.2,0.4,0.4c0.1,0.2,0.2,0.4,0.2,0.7c0,0.5-0.2,0.9-0.6,1.2c-0.4,0.3-0.9,0.5-1.4,0.5c-0.4,0-0.9-0.1-1.2-0.3l0,0
		C19.7,183.4,19.7,183.1,19.7,182.5"/>
	<path id="Path_10" class="st1" d="M23.3,178.8L23.3,178.8c0.8,0,1.3,0,1.5,0c0.7,0,1.4,0,2,0l0,0c-0.1,0.3-0.1,0.7-0.1,1.1l0,0
		h-0.2l0,0v-0.1c0-0.2,0-0.4,0-0.6c-0.2-0.1-0.4-0.1-0.6-0.1c-0.3,0-0.4,0-0.6,0c-0.2,0-0.4,0-0.7,0l0,0.6l0,0.6l0,0.7
		c0.2,0,0.5,0,0.7,0c0.2,0,0.4,0,0.5,0c0.1,0,0.2,0,0.2,0c0,0,0-0.1,0.1-0.1c0-0.1,0-0.2,0-0.2l0-0.2l0,0h0.2l0,0c0,0.3,0,0.5,0,0.8
		l0,0.8l0,0h-0.2l0,0l0-0.2c0-0.1,0-0.2,0-0.3c0,0,0-0.1-0.1-0.1c-0.1,0-0.2-0.1-0.3-0.1c-0.1,0-0.3,0-0.6,0c-0.1,0-0.3,0-0.6,0
		c0,0.2,0,0.5,0,1c0,0.5,0,0.9,0,1.1h0.6c0.6,0,0.9,0,1,0c0.1,0,0.3,0,0.4-0.1c0-0.1,0.1-0.2,0.1-0.4c0-0.2,0.1-0.3,0.1-0.4l0,0H27
		l0,0c0,0.2,0,0.3-0.1,0.5c0,0.2,0,0.5,0,0.6l0,0c-0.4,0-1,0-1.7,0l-0.9,0c-0.2,0-0.4,0-0.7,0l0,0v-0.1l0,0c0.1,0,0.2-0.1,0.2-0.1
		c0-0.2,0.1-0.4,0-0.6c0-0.4,0-0.7,0-0.9v-2.1c0-0.2,0-0.3,0-0.4c0-0.1,0-0.2,0-0.2c0,0,0-0.1,0-0.1c0,0,0,0-0.1,0
		c-0.1,0-0.1,0-0.2,0l-0.3,0l0,0L23.3,178.8z"/>
	<path id="Path_11" class="st1" d="M27.5,183.8L27.5,183.8l0-0.2l0,0c0.1,0,0.2,0,0.3,0c0.1,0,0.1,0,0.2-0.1c0,0,0-0.1,0-0.2
		c0-0.1,0-0.2,0-0.5s0-0.4,0-0.5v-2.8c0-0.1,0-0.2-0.1-0.3c0-0.1-0.1-0.1-0.2-0.1c-0.1,0-0.2,0-0.4,0l0,0v-0.2l0,0
		c0.3,0,0.5,0,0.6,0c0.2,0,0.4,0,0.6,0l1.1,1.4l1.6,2.1c0.2,0.2,0.4,0.5,0.6,0.7v-2.7c0-0.1,0-0.3,0-0.5c0-0.2,0-0.3,0-0.5
		c0-0.1,0-0.1-0.1-0.1c0,0-0.1-0.1-0.2-0.1c-0.1,0-0.2,0-0.3,0l0,0v-0.2l0,0c0.2,0,0.4,0,0.8,0c0.3,0,0.5,0,0.7,0l0,0v0.2l0,0
		c-0.1,0-0.2,0-0.3,0c-0.1,0-0.1,0-0.2,0.1c0,0,0,0.1,0,0.2c0,0.1,0,0.2,0,0.5s0,0.4,0,0.5v2.6c0,0.3,0,0.6,0,0.9
		c-0.2-0.1-0.4-0.1-0.6-0.1l-0.2-0.3l-0.7-0.9l-2.3-3v2.7c0,0.1,0,0.3,0,0.6c0,0.2,0,0.3,0,0.5c0,0,0,0.1,0,0.1c0,0,0.1,0.1,0.1,0.1
		c0.1,0,0.2,0,0.4,0l0,0v0.2l0,0c-0.2,0-0.4,0-0.6,0C28,183.7,27.7,183.7,27.5,183.8"/>
	<path id="Path_12" class="st1" d="M34.5,181.2c0.6-0.5,1-0.9,1.2-1.2l0.6-0.6c0.1-0.1,0.2-0.2,0.3-0.3v-0.2l0,0c0.2,0,0.4,0,0.6,0
		l0.5,0l0,0v0.2l0,0c-0.1,0-0.3,0-0.4,0c-0.1,0.1-0.2,0.1-0.3,0.2c-0.1,0.1-0.3,0.3-0.5,0.5l-1.4,1.3l2.1,1.9
		c0.3,0.3,0.5,0.5,0.6,0.5c0.1,0,0.2,0.1,0.2,0l0,0v0.1l0,0c-0.1,0-0.3,0-0.4,0c-0.1,0-0.3,0-0.6,0c-0.2-0.2-0.4-0.4-0.5-0.5
		c-0.2-0.2-0.8-0.8-2-1.9v1.4c0,0.2,0,0.3,0,0.5c0,0.1,0,0.1,0,0.2c0,0,0.1,0.1,0.1,0.1c0.1,0,0.3,0,0.5,0l0,0v0.2l0,0l-0.6,0
		c-0.2,0-0.3,0-0.4,0c-0.1,0-0.4,0-1,0l0,0v-0.2l0,0c0.1,0,0.3,0,0.4,0c0.1,0,0.1,0,0.1-0.1c0,0,0.1-0.1,0.1-0.1c0-0.2,0-0.3,0-0.5
		v-2.4l0-0.7c0-0.2,0-0.3,0-0.5c0-0.1,0-0.1,0-0.2c0,0-0.1-0.1-0.1-0.1c-0.2,0-0.3,0-0.5,0l0,0v-0.2l0,0l0.4,0c0.3,0,0.5,0,0.5,0
		s0.4,0,1,0l0,0v0.2l0,0c-0.2,0-0.3,0-0.4,0c-0.1,0-0.1,0-0.2,0.1c0,0-0.1,0.1-0.1,0.2c0,0.1,0,0.3,0,0.4l0,0.8L34.5,181.2z"/>
	<path id="Path_13" class="st1" d="M38.2,178.8L38.2,178.8c0.8,0,1.3,0,1.5,0c0.7,0,1.4,0,2,0l0,0c-0.1,0.3-0.1,0.7-0.1,1.1l0,0
		h-0.2l0,0v-0.1c0-0.2,0-0.4,0-0.6c-0.2-0.1-0.4-0.1-0.6-0.1c-0.3,0-0.4,0-0.6,0c-0.2,0-0.4,0-0.7,0l0,0.6l0,0.6l0,0.7
		c0.2,0,0.5,0,0.7,0c0.2,0,0.4,0,0.5,0c0.1,0,0.2,0,0.2,0c0,0,0-0.1,0.1-0.1c0-0.1,0-0.2,0-0.2l0-0.2l0,0h0.2l0,0c0,0.3,0,0.5,0,0.8
		l0,0.8l0,0H41l0,0l0-0.2c0-0.1,0-0.2,0-0.3c0,0,0-0.1-0.1-0.1c-0.1,0-0.2-0.1-0.3-0.1c-0.1,0-0.3,0-0.6,0c-0.1,0-0.3,0-0.6,0
		c0,0.2,0,0.5,0,1c0,0.5,0,0.9,0,1.1h0.6c0.6,0,0.9,0,1,0c0.1,0,0.3,0,0.4-0.1c0-0.1,0.1-0.2,0.1-0.4c0-0.2,0.1-0.3,0.1-0.4l0,0h0.2
		l0,0c0,0.2,0,0.3-0.1,0.5c0,0.2,0,0.5,0,0.6l0,0c-0.4,0-1,0-1.7,0l-0.9,0c-0.2,0-0.4,0-0.7,0l0,0v-0.1l0,0c0.1,0,0.2-0.1,0.2-0.1
		c0-0.2,0.1-0.4,0-0.6c0-0.4,0-0.7,0-0.9v-2.1c0-0.2,0-0.3,0-0.4c0-0.1,0-0.2,0-0.2c0,0,0-0.1,0-0.1c0,0,0,0-0.1,0
		c-0.1,0-0.1,0-0.2,0l-0.3,0l0,0L38.2,178.8z"/>
</g>
</svg>
