<svg xmlns="http://www.w3.org/2000/svg" xmlns:xlink="http://www.w3.org/1999/xlink" width="78" height="37" viewBox="0 0 78 37">
  <defs>
    <clipPath id="clip-path">
      <rect id="Rectangle_48" data-name="Rectangle 48" width="78" height="37" transform="translate(0.444 -0.107)" fill="none"/>
    </clipPath>
  </defs>
  <g id="logo_horizontal" transform="translate(-0.444 0.107)" clip-path="url(#clip-path)">
    <path id="Path_14" data-name="Path 14" d="M44.255,13.1S37.606-.248,21.984,0,0,10.78,0,10.78s11.116-2.067,15.994,6.893c0,0,3.755,6.249-2.288,12.909C8.7,36.1,1.026,34.2,1.026,34.2A6.006,6.006,0,0,1,4.487,37s5.578-1.149,9.1-4.659,4.631-6.768,5.619-8.71A22.081,22.081,0,0,1,44.254,13.1" transform="translate(-0.09 -0.015)" fill="#2a6e2f"/>
    <path id="Path_15" data-name="Path 15" d="M155.515,59.09q.3,0,1.217.78.66.557.661.854,0,.221-.435.334a7.2,7.2,0,0,0-1.06.369q-.835.334-1.772.687a.229.229,0,0,1,.052.037q.695.221.7.409a1.715,1.715,0,0,1-.086.5,4.147,4.147,0,0,0-.035.464v2.787q1.669-.168,3.543-.369a7.4,7.4,0,0,0,.991-.131.583.583,0,0,1,.244-.055,2.4,2.4,0,0,1,.853.369q.608.517.608.761,0,.369-.469.369a3.81,3.81,0,0,1-.73-.093q-.643-.056-1.165-.056a38.841,38.841,0,0,0-3.877.241v7.044q0,1.188-.5,1.188-.209,0-.47-.443a1.84,1.84,0,0,1-.226-.966,5.694,5.694,0,0,1,.052-.613,6.56,6.56,0,0,0,.1-1.169V67.483l-2.295.316a15.032,15.032,0,0,0-2.017.427,3.625,3.625,0,0,1-.5.055,2.563,2.563,0,0,1-.956-.483,6.833,6.833,0,0,1-.748-.575q-.088-.464-.087-.5a8.119,8.119,0,0,0,1.791.242,4.737,4.737,0,0,0,.921-.074q1.772-.241,3.894-.464V63.379a1.439,1.439,0,0,0-.417-.966q-.974.334-2.067.687a10.98,10.98,0,0,1-2.33.5c-.081,0-.122-.049-.122-.148,0-.049.08-.093.244-.131a26.81,26.81,0,0,0,5.581-2.584q.921-.595.921-.91a.837.837,0,0,0-.279-.591c0-.1.093-.148.279-.148" transform="translate(-101.182 -40.351)" fill="#1a1311"/>
    <path id="Path_16" data-name="Path 16" d="M209.7,65.192a4.1,4.1,0,0,0,.348-1.653v-.2a2.4,2.4,0,0,0,.4.2,1.867,1.867,0,0,0,.664.2,5.785,5.785,0,0,0,.869-.13A28.328,28.328,0,0,1,215.667,63a32.527,32.527,0,0,1,3.72-.2q.417,0,.417.352,0,.443-1.113,1.56c0,.111.024.167.07.167l1.39-.632a6.446,6.446,0,0,1,1.234-.369q.365,0,.365-.26,0-.316-.729-1.17-.608-.686-1.008-.686a1.986,1.986,0,0,0-.435.074,5.7,5.7,0,0,1-1.078.111q-1.3.055-3.077.278v-.78a6.027,6.027,0,0,1,.035-.836,1.16,1.16,0,0,0,.035-.26q0-.167-.574-.39a3.438,3.438,0,0,0-.748-.221,1.638,1.638,0,0,0-.5.39c0,.013.063.043.191.093a.757.757,0,0,1,.435.724v1.409q-1.148.186-2.5.39-.574.055-.974.056a2.494,2.494,0,0,1-.765-.111.559.559,0,0,1-.086-.074c-.024-.074-.047-.161-.069-.26-.058-.248-.117-.369-.174-.369-.024,0-.041.081-.052.242a2.771,2.771,0,0,1-.226.836,6.891,6.891,0,0,1-.644,1.188,1.462,1.462,0,0,0-.278.781,1.684,1.684,0,0,0,.156.687q.156.279.278.279.33,0,.748-.8m12.065,7.67a17.109,17.109,0,0,1-2.141-1.133q-.96-.686-3.146-2.525-.417-.316-.678-.539c.046-.012.1-.024.173-.037q.713-.261,1.391-.576a18.056,18.056,0,0,0,1.687-1.04,2.691,2.691,0,0,1,.244-.148c.058-.013.086-.031.086-.056q0-.26-.539-.706-.557-.575-.8-.576c-.174,0-.261.081-.261.241a1.226,1.226,0,0,1,.208.5q0,.111-.33.483a10.644,10.644,0,0,1-1.181,1.039,11.231,11.231,0,0,1-.974.669,6.426,6.426,0,0,0-.869-1.281q-.208-.2-.365-.353a1.606,1.606,0,0,1,.174-.131,3.6,3.6,0,0,1,.625-.517q.122-.111.122-.186,0-.186-.522-.632a18.315,18.315,0,0,1,2.744-.268q.5,0,.5-.39,0-.148-.383-.427a2.029,2.029,0,0,0-.591-.241.647.647,0,0,0-.226.056,3.469,3.469,0,0,1-.713.168q-1.86.278-3.3.538a2.1,2.1,0,0,1-.5.074,3.943,3.943,0,0,1-1.3-.167,4.94,4.94,0,0,0,.156.5,1.329,1.329,0,0,0,.626.5,1.152,1.152,0,0,0,.591.2.656.656,0,0,0,.3-.093,8.189,8.189,0,0,1,1.373-.334.055.055,0,0,1,.017.037.768.768,0,0,1-.208.39,9.283,9.283,0,0,1-1.181,1.188,8.283,8.283,0,0,1-2.121,1.356,7.3,7.3,0,0,0-.73.334c0,.062.04.092.121.092a4.518,4.518,0,0,0,.766-.168,9.166,9.166,0,0,0,1.877-.724,8.206,8.206,0,0,0,1.495-.928c.128.19.251.4.369.616-.21.273-.578.678-.832.951a6.954,6.954,0,0,1-.983.921,7.461,7.461,0,0,1-1.93,1.17l-.7.3c0,.05.046.074.139.074a4.1,4.1,0,0,0,.678-.13,7.973,7.973,0,0,0,1.7-.632,8.146,8.146,0,0,0,1.755-1.152,4.243,4.243,0,0,1,.557-.443l.035-.037c.066.232.128.5.186.777-.439.526-1.062,1.25-1.062,1.25v.01a13.789,13.789,0,0,1-1.156,1.064,9.324,9.324,0,0,1-2.657,1.634q-.939.408-.939.427c0,.049.046.074.139.074a4.793,4.793,0,0,0,.886-.186,10.835,10.835,0,0,0,2.207-.911,10.034,10.034,0,0,0,2.295-1.69q.278-.26.486-.427.035.521.035,1.115a4.208,4.208,0,0,1-.261,1.431,1.142,1.142,0,0,1-.486.631.641.641,0,0,1-.348.111,2.258,2.258,0,0,1-1.043-.352.405.405,0,0,0-.226-.112c-.047,0-.069.055-.069.168,0,.049.063.13.191.241a4.94,4.94,0,0,1,1.338,1.56q.208.5.369.5.278,0,.66-.517a3.89,3.89,0,0,0,.66-1.411,8.637,8.637,0,0,0-.086-4.661c.148.161.3.328.435.5a45.676,45.676,0,0,0,3.077,3.565.459.459,0,0,0,.313.148,5.872,5.872,0,0,0,1.947-.334q.278-.129.278-.334c0-.013-.058-.049-.174-.111" transform="translate(-143.393 -40.79)" fill="#1a1311"/>
    <path id="Path_17" data-name="Path 17" d="M88.162,60.84a1.05,1.05,0,0,0,.608.221,1.9,1.9,0,0,0,.54-.111q.764-.168,3.772-.464,3.529-.335,5.823-.335.5,0,.5-.353,0-.168-.4-.464a1.938,1.938,0,0,0-.574-.221A2.715,2.715,0,0,0,98,59.15a10.1,10.1,0,0,1-1.476.186q-1.321.129-2.538.221v-.369a2.6,2.6,0,0,1,.069-.78.522.522,0,0,0,.069-.241q0-.148-.574-.334a3.686,3.686,0,0,0-.747-.2,1.143,1.143,0,0,0-.435.316c0,.012.063.043.191.092a.756.756,0,0,1,.435.724v.891q-1.738.148-3.268.3-.61.055-1.043.056a4.986,4.986,0,0,1-1.3-.13q0,.018.139.483a1.312,1.312,0,0,0,.644.483m12.881,12.146a22.73,22.73,0,0,1-2.833-1.1q-.853-.427-2.436-1.392a.9.9,0,0,0,.122-.056,12.29,12.29,0,0,0,1.339-.854,2.772,2.772,0,0,1,.3-.186c.093-.037.14-.092.14-.167,0-.124-.156-.317-.469-.576a2.359,2.359,0,0,0-.226-.186q1.025-.055,1.877-.056.487,0,.487-.39,0-.148-.4-.427a1.779,1.779,0,0,0-.591-.241,1.317,1.317,0,0,0-.365.055,9.652,9.652,0,0,1-1.355.2q-1.321.129-2.5.241v-.854q1.513-.148,2.556-.148.434,0,.435-.39,0-.13-.365-.39a2.154,2.154,0,0,0-.539-.186,1.218,1.218,0,0,0-.226.019,5.532,5.532,0,0,1-.782.129l-1.078.111v-.873q.955-.093,1.913-.148c.035.05.08.111.139.186a.622.622,0,0,0,.452.26.712.712,0,0,0,.5-.3,8.627,8.627,0,0,0,.66-2.155,2.215,2.215,0,0,1,.382-1.058.309.309,0,0,0,.1-.186q0-.168-.487-.5a2.288,2.288,0,0,0-1.043-.483.8.8,0,0,0-.226.056,1.829,1.829,0,0,1-.557.111q-3.2.3-5.493.595a.419.419,0,0,0-.33-.168,4.583,4.583,0,0,0-.834-.13,1.061,1.061,0,0,0-.261.13c0,.049.052.1.156.168a1.355,1.355,0,0,1,.382.591,28.438,28.438,0,0,1,.7,3.3c.081.421.221.632.418.632.221,0,.342-.2.365-.591q1.043-.13,2.067-.221v.891q-.782.093-1.476.167a4.368,4.368,0,0,1-.522.038,3.74,3.74,0,0,1-1.2-.148,4.481,4.481,0,0,0,.14.464,1.181,1.181,0,0,0,.574.443.941.941,0,0,0,.556.221.751.751,0,0,0,.3-.092,15.334,15.334,0,0,1,1.634-.241v.855q-1.459.148-2.731.315-.557.055-.96.056a4.405,4.405,0,0,1-1.3-.148q0,.037.139.483a1.181,1.181,0,0,0,.644.483,1.048,1.048,0,0,0,.609.221,1.742,1.742,0,0,0,.5-.111q.365-.092,1.3-.221a11.891,11.891,0,0,1-1.652,1.467,14.593,14.593,0,0,1-3.233,1.69c0,.1.074.148.226.148a5.3,5.3,0,0,0,2-.557,15.47,15.47,0,0,0,2.034-1.059,1.353,1.353,0,0,1,.278.947v.427a2.114,2.114,0,0,1-.348,1.263.768.768,0,0,0-.209.39q0,.13.348.5.33.391.556.39a.379.379,0,0,0,.278-.168,3.045,3.045,0,0,1,.557-.557l2.347-1.876q.369-.26.365-.369c0-.049-.024-.074-.069-.074q-2.782,1.411-2.851,1.411c-.047,0-.069-.018-.069-.057v-.464a6.921,6.921,0,0,1,.069-1.189.9.9,0,0,0,.069-.3q0-.279-.5-.591a1.659,1.659,0,0,0-.156-.111,15.766,15.766,0,0,0,1.5-1.132q.557.389,1.321,1.04,2.8,2.4,4.538,3.621a.791.791,0,0,0,.469.148,3.927,3.927,0,0,0,1.808-.464.467.467,0,0,0,.261-.427.734.734,0,0,0-.226-.111M94.125,61.927c.877-.092,1.545-.139,2-.139q.626,0,.626.316a5.8,5.8,0,0,1-.087.7q-1.27.074-2.539.186Zm0,1.756q1.2-.129,2.4-.2c-.024.136-.047.272-.069.408a3.66,3.66,0,0,1-.157.557q-1.078.056-2.173.167Zm-3.511-1.375c.8-.086,1.874-.221,2.51-.3l.009,1.077q-1.164.131-2.362.279-.07-.464-.156-1.059m.4,2.618q-.069-.334-.156-.91,1.147-.129,2.277-.26v.929q-1.06.111-2.121.241m3.026,4.532q-.557-.334-.9-.517l.174-.148a.919.919,0,0,1,.193-.024q1.55-.167,2.834-.26a.435.435,0,0,1,.018.129,1.343,1.343,0,0,1-.156.5,5.543,5.543,0,0,1-.782,1.151q-.626-.369-1.374-.836" transform="translate(-59.507 -39.354)" fill="#1a1311"/>
    <path id="Path_18" data-name="Path 18" d="M146.182,28.532l.024-.021q.723.024.834.024t.837-.024l.024.021v.148l-.024.021c-.134,0-.238.01-.311.018a.374.374,0,0,0-.159.044.212.212,0,0,0-.066.153,2.739,2.739,0,0,0-.016.333l-.006.681v.941q0,.464.018.682a1.231,1.231,0,0,0,.082.369.68.68,0,0,0,.191.258.985.985,0,0,0,.369.176,1.971,1.971,0,0,0,.543.068,1.927,1.927,0,0,0,.6-.091.812.812,0,0,0,.616-.714,5.128,5.128,0,0,0,.045-.777v-.912q0-.231-.007-.635a2.013,2.013,0,0,0-.035-.465.184.184,0,0,0-.1-.092,1.6,1.6,0,0,0-.413-.037l-.024-.024v-.139l.024-.027q.432.024.691.024c.148,0,.377-.007.689-.024l.027.024v.142l-.027.024a2.681,2.681,0,0,0-.357.022.235.235,0,0,0-.117.049.205.205,0,0,0-.049.1,2.8,2.8,0,0,0-.022.39l-.009.664v.9a6.871,6.871,0,0,1-.041.85,1.123,1.123,0,0,1-.182.511,1.368,1.368,0,0,1-.335.334,1.472,1.472,0,0,1-.5.207,2.7,2.7,0,0,1-.63.074,2.583,2.583,0,0,1-.722-.092,1.363,1.363,0,0,1-.494-.243.944.944,0,0,1-.26-.318,1.2,1.2,0,0,1-.1-.393q-.024-.226-.024-.691V29.93l-.006-.577a4,4,0,0,0-.016-.435.276.276,0,0,0-.041-.13.213.213,0,0,0-.106-.053,2.5,2.5,0,0,0-.388-.032l-.024-.021Z" transform="translate(-100.552 -19.478)" fill="#1a1311"/>
    <path id="Path_19" data-name="Path 19" d="M161.147,28.522l.023-.021q.534.024.831.024.33,0,.889-.021.207-.006.3-.006a1.388,1.388,0,0,1,1,.272.9.9,0,0,1,.263.645,1.025,1.025,0,0,1-.128.488,1.149,1.149,0,0,1-.379.41,1.874,1.874,0,0,1-.691.256c.055.074.152.21.3.4l.414.557q.2.275.432.582a1.858,1.858,0,0,0,.3.346.369.369,0,0,0,.115.049.926.926,0,0,0,.154.009l.023.024v.14l-.027.027a2.64,2.64,0,0,0-.332-.018q-.207,0-.452.018-.2-.249-.633-.861a16.67,16.67,0,0,0-1.027-1.317l.029-.092q.152.009.236.009a1.173,1.173,0,0,0,.791-.245.851.851,0,0,0,.286-.681.7.7,0,0,0-.256-.591,1.1,1.1,0,0,0-.695-.2,1.907,1.907,0,0,0-.578.086,6.069,6.069,0,0,0-.044,1.107v1.948a4.031,4.031,0,0,0,.018.432.278.278,0,0,0,.042.131.222.222,0,0,0,.106.055,2.243,2.243,0,0,0,.388.034l.024.018v.148l-.024.024-.517-.018c-.138,0-.246-.006-.324-.006q-.091,0-.834.024l-.023-.024v-.148l.023-.018a2.887,2.887,0,0,0,.362-.03.259.259,0,0,0,.121-.046.232.232,0,0,0,.049-.12,2.861,2.861,0,0,0,.022-.408V29.92l-.005-.577a3.989,3.989,0,0,0-.016-.435.268.268,0,0,0-.041-.13.214.214,0,0,0-.107-.053,2.488,2.488,0,0,0-.388-.032l-.023-.021Z" transform="translate(-110.835 -19.468)" fill="#1a1311"/>
    <path id="Path_20" data-name="Path 20" d="M173.871,32.628l-.027-.024v-.154l.027-.024a1.263,1.263,0,0,0,.275-.022.239.239,0,0,0,.109-.074,2.51,2.51,0,0,0,.193-.377l.306-.675.793-1.823.443-1.072h.19l1.245,2.972.166.4q.074.168.168.369a1.127,1.127,0,0,0,.131.234.248.248,0,0,0,.09.055.977.977,0,0,0,.241.022l.023.024V32.6l-.023.024q-.309-.027-.557-.027l-.968.027-.023-.024v-.154l.023-.024a2.318,2.318,0,0,0,.408-.028.1.1,0,0,0,.082-.1.516.516,0,0,0-.041-.172l-.359-.9H175.1l-.318.757a.9.9,0,0,0-.085.3.116.116,0,0,0,.079.11,1.328,1.328,0,0,0,.4.038l.027.024V32.6l-.023.024q-.376-.024-.659-.024c-.213,0-.43.008-.647.024m1.329-1.661h1.476l-.732-1.785Z" transform="translate(-119.562 -19.39)" fill="#1a1311"/>
    <path id="Path_21" data-name="Path 21" d="M189.014,31.484l.024-.024h.143l.023.024a2.854,2.854,0,0,0,.039.463.376.376,0,0,0,.158.178,1.119,1.119,0,0,0,.353.152,1.7,1.7,0,0,0,.443.059,1.3,1.3,0,0,0,.556-.116.872.872,0,0,0,.384-.339.942.942,0,0,0,.137-.5.824.824,0,0,0-.066-.34.577.577,0,0,0-.184-.233.835.835,0,0,0-.27-.131,4.5,4.5,0,0,0-.452-.093q-.292-.047-.456-.086a1.532,1.532,0,0,1-.329-.118.874.874,0,0,1-.272-.2.931.931,0,0,1-.175-.3A1.108,1.108,0,0,1,189,29.49a1.186,1.186,0,0,1,.379-.907,1.433,1.433,0,0,1,1.018-.354,2.658,2.658,0,0,1,.553.063,2.214,2.214,0,0,1,.544.188l.021.035a4.093,4.093,0,0,0-.079.776l-.027.024h-.151l-.023-.021q-.006-.355-.018-.447t-.265-.228a1.149,1.149,0,0,0-.551-.136,1.081,1.081,0,0,0-.464.1.682.682,0,0,0-.327.317.954.954,0,0,0-.111.443.682.682,0,0,0,.067.309.577.577,0,0,0,.173.213.738.738,0,0,0,.248.117q.142.038.517.1a3.066,3.066,0,0,1,.751.179.843.843,0,0,1,.376.333,1.025,1.025,0,0,1,.142.551,1.312,1.312,0,0,1-.506,1.051,1.857,1.857,0,0,1-1.227.42,2.416,2.416,0,0,1-1.059-.221l-.018-.038a8.671,8.671,0,0,0,.044-.87" transform="translate(-129.958 -19.286)" fill="#1a1311"/>
    <path id="Path_22" data-name="Path 22" d="M199.079,28.532l.023-.021q1,.018,1.281.018.96,0,1.7-.018l.015.021a5.133,5.133,0,0,0-.109.891l-.017.024h-.143l-.027-.024a.452.452,0,0,0,0-.047,2.876,2.876,0,0,0-.038-.479,1.556,1.556,0,0,0-.509-.109c-.217-.017-.379-.025-.489-.025-.154,0-.35.011-.591.032l-.012.474-.009.542-.009.6q.315.018.58.018t.449-.018a.752.752,0,0,0,.212-.037.126.126,0,0,0,.047-.074,1.1,1.1,0,0,0,.028-.194l.012-.184.023-.024h.134l.024.024q-.007.323-.015.648l.015.664-.024.024H201.5l-.023-.024-.021-.177a2.458,2.458,0,0,0-.038-.247.128.128,0,0,0-.054-.069.576.576,0,0,0-.217-.047,4.746,4.746,0,0,0-.481-.018c-.113,0-.285,0-.517.015q-.015.249-.014.829,0,.622.014.915h.537q.709,0,.886-.018a1.159,1.159,0,0,0,.338-.086,3.147,3.147,0,0,0,.086-.315c.04-.165.063-.268.068-.309l.03-.021h.139l.024.021a4.08,4.08,0,0,0-.051.443q-.025.317-.025.542l-.02.024Q201.6,32.7,200.7,32.7l-.793-.006q-.278,0-.578.024l-.023-.024v-.1l.023-.03a1.55,1.55,0,0,0,.2-.111,2.3,2.3,0,0,0,.041-.517q.016-.5.016-.757V29.423q0-.221-.006-.357a1.127,1.127,0,0,0-.02-.2.228.228,0,0,0-.034-.083.14.14,0,0,0-.061-.04.673.673,0,0,0-.148-.028L199.1,28.7l-.023-.021Z" transform="translate(-136.904 -19.478)" fill="#1a1311"/>
    <path id="Path_23" data-name="Path 23" d="M210.574,32.734l-.027-.027V32.57l.027-.024a2.024,2.024,0,0,0,.285-.021.213.213,0,0,0,.137-.059.283.283,0,0,0,.041-.134q.01-.092.021-.415t.01-.462V29.065a.369.369,0,0,0-.054-.221.235.235,0,0,0-.148-.092,1.928,1.928,0,0,0-.318-.023l-.023-.024v-.139l.023-.027q.4.015.529.015.3,0,.484-.015l.931,1.225,1.369,1.741q.247.317.5.6V29.819c0-.074,0-.221-.01-.454s-.015-.379-.024-.443a.211.211,0,0,0-.051-.125.283.283,0,0,0-.137-.049,2,2,0,0,0-.272-.019l-.023-.024v-.136l.023-.027q.236.015.674.015.4,0,.58-.015l.026.027V28.7l-.023.024a1.927,1.927,0,0,0-.3.022.187.187,0,0,0-.131.063.342.342,0,0,0-.036.13c-.007.057-.014.193-.021.408s-.01.369-.01.464v2.215q.006.4.012.8a4.652,4.652,0,0,0-.5-.124l-.207-.249-.621-.769-1.978-2.51v2.271q0,.136.01.486a4.023,4.023,0,0,0,.025.423.238.238,0,0,0,.038.1.216.216,0,0,0,.1.052,1.392,1.392,0,0,0,.32.027l.024.024V32.7l-.024.024a4.027,4.027,0,0,0-.49-.021q-.435,0-.762.021" transform="translate(-144.771 -19.497)" fill="#1a1311"/>
    <path id="Path_24" data-name="Path 24" d="M227.55,30.551q.732-.672,1.058-1l.537-.545a2.685,2.685,0,0,0,.252-.277v-.193l.03-.024q.221.012.484.012l.461-.009.029.027v.139l-.023.024a1.456,1.456,0,0,0-.369.031,1.033,1.033,0,0,0-.29.19q-.19.159-.439.39L228.1,30.408l1.755,1.649q.424.4.474.435a.449.449,0,0,0,.212.041l.021.024v.125l-.021.024q-.169-.012-.35-.012-.108,0-.472.012-.266-.255-.465-.45t-1.7-1.586v1.208a4.185,4.185,0,0,0,.017.433.282.282,0,0,0,.043.13.221.221,0,0,0,.106.055,2.3,2.3,0,0,0,.388.034l.023.018v.148l-.023.024-.517-.018c-.139,0-.246-.006-.324-.006q-.09,0-.834.024l-.024-.024v-.148l.024-.018a2.946,2.946,0,0,0,.362-.03.263.263,0,0,0,.121-.046.231.231,0,0,0,.049-.12,2.72,2.72,0,0,0,.022-.408v-2l-.007-.577a3.472,3.472,0,0,0-.016-.435.275.275,0,0,0-.041-.131.212.212,0,0,0-.106-.053,2.51,2.51,0,0,0-.388-.032l-.024-.021v-.148l.024-.021.365.012q.359.012.469.012t.837-.024l.023.021v.148l-.023.021c-.134,0-.238.01-.311.018a.369.369,0,0,0-.159.044.213.213,0,0,0-.066.152,2.678,2.678,0,0,0-.016.333l-.006.681Z" transform="translate(-155.689 -19.478)" fill="#1a1311"/>
    <path id="Path_25" data-name="Path 25" d="M240.487,28.532l.023-.021q1,.018,1.281.018.96,0,1.7-.018l.015.021a5.142,5.142,0,0,0-.108.891l-.017.024h-.143l-.027-.024a.452.452,0,0,0,0-.047,2.912,2.912,0,0,0-.038-.479,1.557,1.557,0,0,0-.509-.109q-.325-.025-.489-.025c-.154,0-.35.011-.591.032l-.012.474-.009.542-.009.6q.315.018.58.018t.449-.018a.752.752,0,0,0,.212-.037.126.126,0,0,0,.046-.074,1.079,1.079,0,0,0,.027-.194l.012-.184.023-.024h.134l.024.024q-.007.323-.015.648l.015.664-.024.024h-.134l-.023-.024-.021-.177q-.027-.207-.038-.247a.128.128,0,0,0-.054-.069.576.576,0,0,0-.217-.047,4.745,4.745,0,0,0-.481-.018c-.113,0-.285,0-.517.015q-.015.249-.015.829,0,.622.015.915h.537q.709,0,.886-.018a1.16,1.16,0,0,0,.338-.086,3.154,3.154,0,0,0,.086-.315c.04-.165.063-.268.068-.309l.03-.021h.14l.024.021a4.135,4.135,0,0,0-.051.443c-.016.211-.025.392-.025.542l-.02.024q-.557-.018-1.459-.018l-.793-.006q-.278,0-.578.024l-.023-.024v-.1l.023-.03a1.55,1.55,0,0,0,.2-.111,2.307,2.307,0,0,0,.041-.517q.016-.5.016-.757V29.423q0-.221-.006-.357a1.124,1.124,0,0,0-.02-.2.226.226,0,0,0-.034-.083.14.14,0,0,0-.061-.04.674.674,0,0,0-.148-.028L240.5,28.7l-.023-.021Z" transform="translate(-165.362 -19.478)" fill="#1a1311"/>
  </g>
</svg>
